<svg xmlns="http://www.w3.org/2000/svg" viewBox="0 0 24 24" fill="none">
  <defs>
    <linearGradient id="doc-body" x1="4" y1="3" x2="20" y2="23" gradientUnits="userSpaceOnUse">
      <stop stop-color="#10172A"/>
      <stop offset="1" stop-color="#182341"/>
    </linearGradient>
    <linearGradient id="doc-fold" x1="17" y1="2" x2="22" y2="7" gradientUnits="userSpaceOnUse">
      <stop stop-color="#1AA8FF"/>
      <stop offset="1" stop-color="#6EFCE3"/>
    </linearGradient>
    <linearGradient id="doc-check" x1="8" y1="12" x2="15.5" y2="18" gradientUnits="userSpaceOnUse">
      <stop stop-color="#6EFCE3"/>
      <stop offset="1" stop-color="#1AA8FF"/>
    </linearGradient>
  </defs>
  <path d="M7 2h8.2a2 2 0 0 1 1.4.6l4.8 4.8a2 2 0 0 1 .6 1.4V18a4 4 0 0 1-4 4H7a4 4 0 0 1-4-4V6a4 4 0 0 1 4-4Z" fill="url(#doc-body)"/>
  <path d="M16 2.8V6a2 2 0 0 0 2 2h3.2L16 2.8Z" fill="url(#doc-fold)"/>
  <path d="M7.7 11.5h5.6M7.7 9h4.1" stroke="#233055" stroke-width="1.3" stroke-linecap="round" opacity=".55"/>
  <path d="M9.2 14.7 11.1 16.6l4.1-4.4" stroke="url(#doc-check)" stroke-width="2" stroke-linecap="round" stroke-linejoin="round"/>
</svg>
