<svg xmlns="http://www.w3.org/2000/svg" viewBox="0 0 24 24" fill="none">
  <defs>
    <radialGradient id="planet-core" cx="0" cy="0" r="1" gradientUnits="userSpaceOnUse" gradientTransform="translate(12 12) scale(12)">
      <stop offset=".1" stop-color="#1AA8FF"/>
      <stop offset="1" stop-color="#0C1224"/>
    </radialGradient>
    <linearGradient id="planet-lines" x1="5" y1="6" x2="19" y2="18" gradientUnits="userSpaceOnUse">
      <stop stop-color="#6EFCE3"/>
      <stop offset="1" stop-color="#1AA8FF"/>
    </linearGradient>
  </defs>
  <circle cx="12" cy="12" r="10" fill="url(#planet-core)"/>
  <path d="M4.2 12c1.5-3.3 4.6-5.2 7.8-5.2s6.3 1.9 7.8 5.2c-1.5 3.3-4.6 5.2-7.8 5.2S5.7 15.3 4.2 12Z" stroke="url(#planet-lines)" stroke-width="1.3" stroke-linecap="round" stroke-linejoin="round" opacity=".9"/>
  <path d="M12 4.8c-2.3 2-3.8 4.9-3.8 7.7s1.5 5.7 3.8 7.7c2.3-2 3.8-4.9 3.8-7.7S14.3 6.8 12 4.8Z" stroke="url(#planet-lines)" stroke-width="1.3" stroke-linecap="round" stroke-linejoin="round" opacity=".9"/>
  <path d="M2.7 9.5c2.6-1.6 5.8-2.5 9.3-2.5 3.5 0 6.6.9 9.2 2.5" stroke="url(#planet-lines)" stroke-width="1.1" stroke-linecap="round" opacity=".4"/>
  <path d="M2.7 14.5c2.6 1.6 5.8 2.5 9.3 2.5 3.5 0 6.6-.9 9.2-2.5" stroke="url(#planet-lines)" stroke-width="1.1" stroke-linecap="round" opacity=".4"/>
  <path d="m5.2 17.9 2.1.8m9.4-1.2 2.1-.8M5.2 6.1 7.3 5.3m9.4 0 2.1.8" stroke="#80FFE9" stroke-width=".9" stroke-linecap="round" opacity=".3"/>
</svg>
