<svg xmlns="http://www.w3.org/2000/svg" viewBox="0 0 32 32" fill="none">
  <defs>
    <radialGradient id="spark-orbit" cx="0" cy="0" r="1" gradientUnits="userSpaceOnUse" gradientTransform="translate(16 16) scale(16)">
      <stop offset=".1" stop-color="#1AA8FF"/>
      <stop offset="1" stop-color="#0C1224"/>
    </radialGradient>
    <linearGradient id="spark-core" x1="11" y1="6" x2="21" y2="26" gradientUnits="userSpaceOnUse">
      <stop stop-color="#6EFCE3"/>
      <stop offset="1" stop-color="#1AA8FF"/>
    </linearGradient>
    <linearGradient id="spark-trail" x1="4" y1="28" x2="28" y2="4" gradientUnits="userSpaceOnUse">
      <stop stop-color="#6EFCE3" stop-opacity=".15"/>
      <stop offset="1" stop-color="#1AA8FF" stop-opacity="0"/>
    </linearGradient>
  </defs>
  <circle cx="16" cy="16" r="15" fill="url(#spark-orbit)"/>
  <path d="M26.5 5.5 18.9 13.1a2 2 0 0 1-2.8 0L12.7 9.8a1.4 1.4 0 0 0-2 .05l-5 5" stroke="url(#spark-trail)" stroke-width="2.5" stroke-linecap="round"/>
  <path d="M16 6.5 18.2 12l5.9.5-4.6 3.9 1.4 5.9L16 19.8l-4.9 2.5 1.3-5.9-4.4-3.9 5.8-.5L16 6.5z" fill="url(#spark-core)" stroke="#0B1020" stroke-width=".75" stroke-linejoin="round"/>
  <circle cx="16" cy="16" r="3" fill="#0B1020" opacity=".25"/>
</svg>
