<svg xmlns="http://www.w3.org/2000/svg" viewBox="0 0 394 80" fill="none">
  <defs>
    <linearGradient id="banner-bg" x1="14" y1="6" x2="360" y2="74" gradientUnits="userSpaceOnUse">
      <stop stop-color="#0B1120"/>
      <stop offset="1" stop-color="#161F36"/>
    </linearGradient>
    <linearGradient id="banner-accent" x1="34" y1="18" x2="176" y2="74" gradientUnits="userSpaceOnUse">
      <stop stop-color="#6EFCE3"/>
      <stop offset="1" stop-color="#1AA8FF"/>
    </linearGradient>
    <linearGradient id="banner-shake" x1="184" y1="28" x2="252" y2="68" gradientUnits="userSpaceOnUse">
      <stop stop-color="#6EFCE3"/>
      <stop offset="1" stop-color="#1AA8FF"/>
    </linearGradient>
    <linearGradient id="banner-curve" x1="278" y1="22" x2="358" y2="68" gradientUnits="userSpaceOnUse">
      <stop stop-color="#6EFCE3"/>
      <stop offset="1" stop-color="#1AA8FF"/>
    </linearGradient>
    <radialGradient id="banner-glow" cx="0" cy="0" r="1" gradientUnits="userSpaceOnUse" gradientTransform="matrix(33.2 -9.6 7.5 26 210 20)">
      <stop offset=".05" stop-color="#1AA8FF" stop-opacity=".9"/>
      <stop offset="1" stop-color="#1AA8FF" stop-opacity="0"/>
    </radialGradient>
  </defs>
  <rect x="6" y="4" width="382" height="72" rx="22" fill="url(#banner-bg)"/>
  <rect x="6" y="4" width="382" height="72" rx="22" stroke="#0C1529" stroke-width="2" opacity=".55"/>
  <path d="M32 18h132v14H96v44H82V32H32z" fill="url(#banner-accent)"/>
  <path d="M182 46c0-13.6 11.2-24.8 25.1-24.8h13.2c5.7 0 11.1 2.6 14.7 7l5 6.4a6 6 0 0 1-9.2 7.6l-5.7-5.3a4.1 4.1 0 0 0-2.8-1.1h-5c-6.4 0-10.6 4.2-10.6 10s4.2 10 10.6 10h5c1 0 2-.3 2.8-.8l6-3.7a6 6 0 0 1 9.2 5v7.5c-7.6 6.3-16.7 9.5-27.2 9.5-20.5 0-35.1-13-35.1-27.3Z" fill="url(#banner-shake)"/>
  <path d="M182 46c0-13.6 11.2-24.8 25.1-24.8h13.2c5.7 0 11.1 2.6 14.7 7l5 6.4a6 6 0 0 1-9.2 7.6l-5.7-5.3a4.1 4.1 0 0 0-2.8-1.1h-5c-6.4 0-10.6 4.2-10.6 10s4.2 10 10.6 10h5c1 0 2-.3 2.8-.8l6-3.7a6 6 0 0 1 9.2 5v7.5c-7.6 6.3-16.7 9.5-27.2 9.5-20.5 0-35.1-13-35.1-27.3Z" fill="#0C1529" opacity=".2"/>
  <path d="M312.5 24c-18.6 0-33.5 14-33.5 32s14.9 32 33.5 32c12.5 0 20.9-4.6 27.8-12.9l-11-8.2c-4.5 5.2-9 7.5-16.6 7.5-10.6 0-18.1-8-18.1-18.4S302.1 38 313.7 38c6.8 0 10.9 2 16.1 7.3l10.8-8.4C333 28.8 324.4 24 312.5 24Z" fill="url(#banner-curve)"/>
  <circle cx="210" cy="24" r="22" fill="url(#banner-glow)" opacity=".6"/>
  <path d="M70 62h84M226 62h70M320 62h40" stroke="#233055" stroke-width="3" stroke-linecap="round" opacity=".35"/>
  <circle cx="154" cy="62" r="4" fill="#6EFCE3"/>
  <circle cx="226" cy="62" r="4" fill="#6EFCE3" opacity=".7"/>
  <circle cx="296" cy="62" r="4" fill="#6EFCE3" opacity=".5"/>
  <path d="M134 40h22M134 50h16" stroke="#0C1529" stroke-width="4" stroke-linecap="round" opacity=".35"/>
  <path d="M210 31a7 7 0 0 1 7 7v13a7 7 0 0 1-7 7 7 7 0 0 1-7-7V38a7 7 0 0 1 7-7Z" fill="#0B1020" opacity=".35"/>
</svg>
